<mxfile host="app.diagrams.net" modified="2024-03-21T15:11:54.055Z" agent="Mozilla/5.0 (Windows NT 10.0; Win64; x64) AppleWebKit/537.36 (KHTML, like Gecko) Chrome/122.0.0.0 Safari/537.36" etag="YwXw1MqAYk8_kRkKaX6U" version="24.0.7" type="github">
  <diagram name="Page-1" id="2cc2dc42-3aac-f2a9-1cec-7a8b7cbee084">
    <mxGraphModel dx="1588" dy="870" grid="1" gridSize="10" guides="1" tooltips="1" connect="1" arrows="1" fold="1" page="1" pageScale="1" pageWidth="1100" pageHeight="850" background="none" math="0" shadow="0">
      <root>
        <mxCell id="0" />
        <mxCell id="1" parent="0" />
        <mxCell id="JRQ_z70AedUTBUByx87N-3" value="" style="edgeStyle=orthogonalEdgeStyle;rounded=0;orthogonalLoop=1;jettySize=auto;html=1;strokeColor=#FF6392;fontColor=#5AA9E6;fillColor=#FFE45E;" edge="1" parent="1">
          <mxGeometry relative="1" as="geometry">
            <mxPoint x="210" y="270" as="sourcePoint" />
            <mxPoint x="210" y="350" as="targetPoint" />
          </mxGeometry>
        </mxCell>
        <mxCell id="JRQ_z70AedUTBUByx87N-45" value="" style="childLayout=tableLayout;recursiveResize=0;shadow=0;fillColor=none;strokeColor=#FF6392;fontColor=#5AA9E6;" vertex="1" parent="1">
          <mxGeometry x="200" y="140" width="490" height="328" as="geometry" />
        </mxCell>
        <mxCell id="JRQ_z70AedUTBUByx87N-62" value="" style="shape=tableRow;horizontal=0;startSize=0;swimlaneHead=0;swimlaneBody=0;top=0;left=0;bottom=0;right=0;dropTarget=0;collapsible=0;recursiveResize=0;expand=0;fontStyle=0;fillColor=none;strokeColor=inherit;fontColor=#5AA9E6;" vertex="1" parent="JRQ_z70AedUTBUByx87N-45">
          <mxGeometry width="490" height="47" as="geometry" />
        </mxCell>
        <mxCell id="JRQ_z70AedUTBUByx87N-63" value="Value 1" style="connectable=0;recursiveResize=0;strokeColor=inherit;fillColor=none;align=center;whiteSpace=wrap;html=1;fontColor=#5AA9E6;" vertex="1" parent="JRQ_z70AedUTBUByx87N-62">
          <mxGeometry width="164" height="47" as="geometry">
            <mxRectangle width="164" height="47" as="alternateBounds" />
          </mxGeometry>
        </mxCell>
        <mxCell id="JRQ_z70AedUTBUByx87N-64" value="Value 2" style="connectable=0;recursiveResize=0;strokeColor=inherit;fillColor=none;align=center;whiteSpace=wrap;html=1;fontColor=#5AA9E6;" vertex="1" parent="JRQ_z70AedUTBUByx87N-62">
          <mxGeometry x="164" width="162" height="47" as="geometry">
            <mxRectangle width="162" height="47" as="alternateBounds" />
          </mxGeometry>
        </mxCell>
        <mxCell id="JRQ_z70AedUTBUByx87N-65" value="Value 3" style="connectable=0;recursiveResize=0;strokeColor=inherit;fillColor=none;align=center;whiteSpace=wrap;html=1;fontColor=#5AA9E6;" vertex="1" parent="JRQ_z70AedUTBUByx87N-62">
          <mxGeometry x="326" width="164" height="47" as="geometry">
            <mxRectangle width="164" height="47" as="alternateBounds" />
          </mxGeometry>
        </mxCell>
        <mxCell id="JRQ_z70AedUTBUByx87N-70" value="" style="shape=tableRow;horizontal=0;startSize=0;swimlaneHead=0;swimlaneBody=0;top=0;left=0;bottom=0;right=0;dropTarget=0;collapsible=0;recursiveResize=0;expand=0;fontStyle=0;fillColor=none;strokeColor=inherit;fontColor=#5AA9E6;" vertex="1" parent="JRQ_z70AedUTBUByx87N-45">
          <mxGeometry y="47" width="490" height="47" as="geometry" />
        </mxCell>
        <mxCell id="JRQ_z70AedUTBUByx87N-71" value="Value 1" style="connectable=0;recursiveResize=0;strokeColor=inherit;fillColor=none;align=center;whiteSpace=wrap;html=1;fontColor=#5AA9E6;" vertex="1" parent="JRQ_z70AedUTBUByx87N-70">
          <mxGeometry width="164" height="47" as="geometry">
            <mxRectangle width="164" height="47" as="alternateBounds" />
          </mxGeometry>
        </mxCell>
        <mxCell id="JRQ_z70AedUTBUByx87N-72" value="Value 2" style="connectable=0;recursiveResize=0;strokeColor=inherit;fillColor=none;align=center;whiteSpace=wrap;html=1;fontColor=#5AA9E6;" vertex="1" parent="JRQ_z70AedUTBUByx87N-70">
          <mxGeometry x="164" width="162" height="47" as="geometry">
            <mxRectangle width="162" height="47" as="alternateBounds" />
          </mxGeometry>
        </mxCell>
        <mxCell id="JRQ_z70AedUTBUByx87N-73" value="Value 3" style="connectable=0;recursiveResize=0;strokeColor=inherit;fillColor=none;align=center;whiteSpace=wrap;html=1;fontColor=#5AA9E6;" vertex="1" parent="JRQ_z70AedUTBUByx87N-70">
          <mxGeometry x="326" width="164" height="47" as="geometry">
            <mxRectangle width="164" height="47" as="alternateBounds" />
          </mxGeometry>
        </mxCell>
        <mxCell id="JRQ_z70AedUTBUByx87N-66" value="" style="shape=tableRow;horizontal=0;startSize=0;swimlaneHead=0;swimlaneBody=0;top=0;left=0;bottom=0;right=0;dropTarget=0;collapsible=0;recursiveResize=0;expand=0;fontStyle=0;fillColor=none;strokeColor=inherit;fontColor=#5AA9E6;" vertex="1" parent="JRQ_z70AedUTBUByx87N-45">
          <mxGeometry y="94" width="490" height="47" as="geometry" />
        </mxCell>
        <mxCell id="JRQ_z70AedUTBUByx87N-67" value="Value 1" style="connectable=0;recursiveResize=0;strokeColor=inherit;fillColor=none;align=center;whiteSpace=wrap;html=1;fontColor=#5AA9E6;" vertex="1" parent="JRQ_z70AedUTBUByx87N-66">
          <mxGeometry width="164" height="47" as="geometry">
            <mxRectangle width="164" height="47" as="alternateBounds" />
          </mxGeometry>
        </mxCell>
        <mxCell id="JRQ_z70AedUTBUByx87N-68" value="Value 2" style="connectable=0;recursiveResize=0;strokeColor=inherit;fillColor=none;align=center;whiteSpace=wrap;html=1;fontColor=#5AA9E6;" vertex="1" parent="JRQ_z70AedUTBUByx87N-66">
          <mxGeometry x="164" width="162" height="47" as="geometry">
            <mxRectangle width="162" height="47" as="alternateBounds" />
          </mxGeometry>
        </mxCell>
        <mxCell id="JRQ_z70AedUTBUByx87N-69" value="Value 3" style="connectable=0;recursiveResize=0;strokeColor=inherit;fillColor=none;align=center;whiteSpace=wrap;html=1;fontColor=#5AA9E6;" vertex="1" parent="JRQ_z70AedUTBUByx87N-66">
          <mxGeometry x="326" width="164" height="47" as="geometry">
            <mxRectangle width="164" height="47" as="alternateBounds" />
          </mxGeometry>
        </mxCell>
        <mxCell id="JRQ_z70AedUTBUByx87N-58" value="" style="shape=tableRow;horizontal=0;startSize=0;swimlaneHead=0;swimlaneBody=0;top=0;left=0;bottom=0;right=0;dropTarget=0;collapsible=0;recursiveResize=0;expand=0;fontStyle=0;fillColor=none;strokeColor=inherit;fontColor=#5AA9E6;" vertex="1" parent="JRQ_z70AedUTBUByx87N-45">
          <mxGeometry y="141" width="490" height="47" as="geometry" />
        </mxCell>
        <mxCell id="JRQ_z70AedUTBUByx87N-59" value="Value 1" style="connectable=0;recursiveResize=0;strokeColor=inherit;fillColor=none;align=center;whiteSpace=wrap;html=1;fontColor=#5AA9E6;" vertex="1" parent="JRQ_z70AedUTBUByx87N-58">
          <mxGeometry width="164" height="47" as="geometry">
            <mxRectangle width="164" height="47" as="alternateBounds" />
          </mxGeometry>
        </mxCell>
        <mxCell id="JRQ_z70AedUTBUByx87N-60" value="Value 2" style="connectable=0;recursiveResize=0;strokeColor=inherit;fillColor=none;align=center;whiteSpace=wrap;html=1;fontColor=#5AA9E6;" vertex="1" parent="JRQ_z70AedUTBUByx87N-58">
          <mxGeometry x="164" width="162" height="47" as="geometry">
            <mxRectangle width="162" height="47" as="alternateBounds" />
          </mxGeometry>
        </mxCell>
        <mxCell id="JRQ_z70AedUTBUByx87N-61" value="Value 3" style="connectable=0;recursiveResize=0;strokeColor=inherit;fillColor=none;align=center;whiteSpace=wrap;html=1;fontColor=#5AA9E6;" vertex="1" parent="JRQ_z70AedUTBUByx87N-58">
          <mxGeometry x="326" width="164" height="47" as="geometry">
            <mxRectangle width="164" height="47" as="alternateBounds" />
          </mxGeometry>
        </mxCell>
        <mxCell id="JRQ_z70AedUTBUByx87N-46" value="" style="shape=tableRow;horizontal=0;startSize=0;swimlaneHead=0;swimlaneBody=0;top=0;left=0;bottom=0;right=0;dropTarget=0;collapsible=0;recursiveResize=0;expand=0;fontStyle=0;fillColor=none;strokeColor=inherit;fontColor=#5AA9E6;" vertex="1" parent="JRQ_z70AedUTBUByx87N-45">
          <mxGeometry y="188" width="490" height="47" as="geometry" />
        </mxCell>
        <mxCell id="JRQ_z70AedUTBUByx87N-47" value="Value 1" style="connectable=0;recursiveResize=0;strokeColor=inherit;fillColor=none;align=center;whiteSpace=wrap;html=1;fontColor=#5AA9E6;" vertex="1" parent="JRQ_z70AedUTBUByx87N-46">
          <mxGeometry width="164" height="47" as="geometry">
            <mxRectangle width="164" height="47" as="alternateBounds" />
          </mxGeometry>
        </mxCell>
        <mxCell id="JRQ_z70AedUTBUByx87N-48" value="Value 2" style="connectable=0;recursiveResize=0;strokeColor=inherit;fillColor=none;align=center;whiteSpace=wrap;html=1;fontColor=#5AA9E6;" vertex="1" parent="JRQ_z70AedUTBUByx87N-46">
          <mxGeometry x="164" width="162" height="47" as="geometry">
            <mxRectangle width="162" height="47" as="alternateBounds" />
          </mxGeometry>
        </mxCell>
        <mxCell id="JRQ_z70AedUTBUByx87N-49" value="Value 3" style="connectable=0;recursiveResize=0;strokeColor=inherit;fillColor=none;align=center;whiteSpace=wrap;html=1;fontColor=#5AA9E6;" vertex="1" parent="JRQ_z70AedUTBUByx87N-46">
          <mxGeometry x="326" width="164" height="47" as="geometry">
            <mxRectangle width="164" height="47" as="alternateBounds" />
          </mxGeometry>
        </mxCell>
        <mxCell id="JRQ_z70AedUTBUByx87N-50" style="shape=tableRow;horizontal=0;startSize=0;swimlaneHead=0;swimlaneBody=0;top=0;left=0;bottom=0;right=0;dropTarget=0;collapsible=0;recursiveResize=0;expand=0;fontStyle=0;fillColor=none;strokeColor=inherit;fontColor=#5AA9E6;" vertex="1" parent="JRQ_z70AedUTBUByx87N-45">
          <mxGeometry y="235" width="490" height="46" as="geometry" />
        </mxCell>
        <mxCell id="JRQ_z70AedUTBUByx87N-51" value="Value 4" style="connectable=0;recursiveResize=0;strokeColor=inherit;fillColor=none;align=center;whiteSpace=wrap;html=1;fontColor=#5AA9E6;" vertex="1" parent="JRQ_z70AedUTBUByx87N-50">
          <mxGeometry width="164" height="46" as="geometry">
            <mxRectangle width="164" height="46" as="alternateBounds" />
          </mxGeometry>
        </mxCell>
        <mxCell id="JRQ_z70AedUTBUByx87N-52" value="Value 5" style="connectable=0;recursiveResize=0;strokeColor=inherit;fillColor=none;align=center;whiteSpace=wrap;html=1;fontColor=#5AA9E6;" vertex="1" parent="JRQ_z70AedUTBUByx87N-50">
          <mxGeometry x="164" width="162" height="46" as="geometry">
            <mxRectangle width="162" height="46" as="alternateBounds" />
          </mxGeometry>
        </mxCell>
        <mxCell id="JRQ_z70AedUTBUByx87N-53" value="Value 6" style="connectable=0;recursiveResize=0;strokeColor=inherit;fillColor=none;align=center;whiteSpace=wrap;html=1;fontColor=#5AA9E6;" vertex="1" parent="JRQ_z70AedUTBUByx87N-50">
          <mxGeometry x="326" width="164" height="46" as="geometry">
            <mxRectangle width="164" height="46" as="alternateBounds" />
          </mxGeometry>
        </mxCell>
        <mxCell id="JRQ_z70AedUTBUByx87N-54" style="shape=tableRow;horizontal=0;startSize=0;swimlaneHead=0;swimlaneBody=0;top=0;left=0;bottom=0;right=0;dropTarget=0;collapsible=0;recursiveResize=0;expand=0;fontStyle=0;fillColor=none;strokeColor=inherit;fontColor=#5AA9E6;" vertex="1" parent="JRQ_z70AedUTBUByx87N-45">
          <mxGeometry y="281" width="490" height="47" as="geometry" />
        </mxCell>
        <mxCell id="JRQ_z70AedUTBUByx87N-55" value="Value 7" style="connectable=0;recursiveResize=0;strokeColor=inherit;fillColor=none;align=center;whiteSpace=wrap;html=1;fontColor=#5AA9E6;" vertex="1" parent="JRQ_z70AedUTBUByx87N-54">
          <mxGeometry width="164" height="47" as="geometry">
            <mxRectangle width="164" height="47" as="alternateBounds" />
          </mxGeometry>
        </mxCell>
        <mxCell id="JRQ_z70AedUTBUByx87N-56" value="Value 8" style="connectable=0;recursiveResize=0;strokeColor=inherit;fillColor=none;align=center;whiteSpace=wrap;html=1;fontColor=#5AA9E6;" vertex="1" parent="JRQ_z70AedUTBUByx87N-54">
          <mxGeometry x="164" width="162" height="47" as="geometry">
            <mxRectangle width="162" height="47" as="alternateBounds" />
          </mxGeometry>
        </mxCell>
        <mxCell id="JRQ_z70AedUTBUByx87N-57" value="Value 9" style="connectable=0;recursiveResize=0;strokeColor=inherit;fillColor=none;align=center;whiteSpace=wrap;html=1;fontColor=#5AA9E6;" vertex="1" parent="JRQ_z70AedUTBUByx87N-54">
          <mxGeometry x="326" width="164" height="47" as="geometry">
            <mxRectangle width="164" height="47" as="alternateBounds" />
          </mxGeometry>
        </mxCell>
      </root>
    </mxGraphModel>
  </diagram>
</mxfile>
